<svg height="1200pt" viewBox="0 0 1200 1200" width="1200pt" xmlns="http://www.w3.org/2000/svg"><path d="m854.7 14.809c-6.5664-5.8008-15.059-9.0312-23.84-9.0312l-450.52 56.41c-17.906 2.3203-31.426 17.645-31.426 35.684v121.41l-214.22 178.75s-13.133 10.574-12.91 27.641v616.96c0 14.969 9.4141 28.512 23.355 33.664l315.31 118.04c.10547.027344.22266.027344.35547.054687 6.9102 2.9141 17.406 1.8867 19.676 1.3711l551.31-117.94c16.457-3.5586 28.406-18.355 28.406-35.184v-616.96c0-12.91-7.4883-21.969-7.4883-21.969-.10547-.16016-.21094-.30469-.32812-.46094l-185.53-248.67v-112.84c0-10.375-4.4844-20.215-12.16-26.926zm-433.83 114.8 374.04-47.09v53.156l-374.04 58.379zm16.125 979.11-243.28-91.016v-540.2l243.29 91.027zm551.29-95.172-479.34 102.54v-543.43l479.34-102.55zm-26.398-611.31-486.13 103.99-247.45-92.586 137.22-114.52 39.086 136.51c4.4297 15.297 18.645 25.992 34.574 25.992 3.2969 0 6.6211-.44922 9.8906-1.3828 9.2188-2.625 16.891-8.7031 21.547-17.09 4.6797-8.4258 5.8164-18.117 3.1641-27.375l-43.082-150.39 384.32-59.973z"/></svg>