<?xml version="1.0" encoding="UTF-8"?><svg xmlns="http://www.w3.org/2000/svg" viewBox="0 0 1200 1200"><path d="m591.67,386.67c-1,2-5.33,2.67-9.33,1.67-5.33-1.33-10,.33-15.33,6.33l-7.67,8.33,12.33,5c17,7.33,15.67,7.33,41.33-7,1.67-1-14-17.67-17-17.67-1.33,0-3.33,1.67-4.33,3.33h0Z" stroke-width="0"/><path d="m1134.65,984.68c-3.67-13.67-13.67-16.33-67-17.33l-50.67-1.33,1.67-8.67c4.33-24.33,22-183.33,23.67-214,4.33-78-22-105.33-89-93.33-47,8.33-187,69.33-241.67,105.33-10.67,7-11,13.67,3.33-91.33,14.67-108.67,14.33-107.33,19.67-107.33,5,0,110.67-54.67,139.33-72,10.33-6.33,31.67-17.67,47-24.67,15.33-7.33,38.33-19.33,51-26.67,19-11,24.67-13,35-11.33,27.33,4.33,53-14.33,53-39,0-28.33-23.67-54-49.67-54-16.67,0-26,5.67-33,20-6,13-16.67,17.67-74,34-63,18-198,57.33-219.33,64l-24.33,7.33-9-8.67c-5.33-5-11.33-9-14-9-3.33,0-3.67-1-1-3.67,2.67-2.67,5.67-2.33,11.33,1.67,17.67,12.33,54,2.67,67.67-17.67,3.67-5,11-10.67,16.33-12.33,18-5.33,21.67-13.67,33-73.33,3-16.33,5.67-21.33,13-25.33,27-15.67,32.33-54.33,11.33-82.67-7.67-10-8.33-13.67-6.67-27.33,1.33-9.33.67-20.67-1.67-28-3.67-11-3.67-13,2-17,11.67-8.67,31.67-12,45.67-7.67,10.33,3,14,6.33,18.67,17.67,3.67,8.67,9.67,15.67,15,18.33,11.67,5.33,43.67,5.33,48-.33,5.67-7,11.33-39.67,7.33-43.67-2-2-8.67-2-20.33.67-9.33,2.33-18.33,3.33-19.67,2.33-1.67-1-6-8.33-10-16.33-9.67-20.33-24-26.67-53-24.33-12,1-28.33,4.33-36,7-21.33,7.33-17.33,1,4.67-8,22.33-9.33,45.33-31,54.33-51,10.33-22.33,9-27.67-8-32-20-5-24.33-4.67-26.67,1.67l.02-.02c-1,3-2,8-2,11.33,0,11.33-16.33,26.33-37,33.67-21.33,7.67-33.67,18.33-42.67,35.67l-5.67,11-9.67-13.67c-13-17.67-37-32.67-55.33-35.33-17-2-40.33,5-52,15.67l-7.33,7-9.67-6.67c-12-8.67-38-14.67-50-12-22,5.33-50,27.33-57.33,44.67-3,7.33-6.33,10-12.33,10-30.33,0-71,45.67-71,80,0,5.33-3.67,12-8.67,17-13,12.33-19,26-19,45,0,22.33,11.33,46,26.33,55.67,8.67,5.67,11,9,9.33,14-1,3.67-2.67,15.33-3.67,25.67-1.33,14.67-.33,21.33,3.67,27.67,7.33,11,24.67,21.67,35.33,21.67,6.33,0,9.67,3.33,14.33,13,10.67,23.67,42.67,30.67,60.67,13.67,6-5.67,9-6.67,14-3.67,15.33,8,15.33,12-1.33,25.67-36,29.33-60.33,59-103.67,126.67-16.33,25.67-46,71-66,101.33-20,30.33-40,62-44.67,70.67-5.67,10.67-10.67,16-16.67,17-12.67,2.67-25.33,14-33,30-13.67,28-7,50.33,18,62.33,17.33,8.33,35.33,7.33,52.33-2.67,10.67-6.33,26-34,26-47.33,0-11.67,27.67-44.33,99-116.67,36.67-37.33,54.67-53.33,55.67-50,1,2.67,9.33,39,18.67,80.67,13.67,62.67,16.67,81,16.67,108.33,0,18,1.33,44,3.33,57.67,6,43,16.33,152.67,20,208.33,6.67,104.33,6,101.67,15.33,101.67,4.33,0,8-2,8-4.33-.33-2-2.33-32.67-4.67-67.33-2.67-35-4-64-3.67-64.33,1-1.33,58.33-8.67,86-11.33,14.33-1.67,14-2.33,9,34.67-2,13.33-5.33,44.33-7.67,68.67l-4.33,44h7.67c9,0,9-1,14-51.67,5.33-56.33,20.67-176,23.33-181,1-2.33,13.67-9.33,28-15.33,43.67-19,76.67-43.33,150.33-111.67,18.33-16.67,33.33-30,34-29.33,1.33,1,20,146.33,24.67,192.33,4.67,41.67,10,56.67,20.67,57,25,1,26,.67,121-36.33,27-10.33,49-29.33,46.33-39.33ZM867.67,152.33c4,1.33,13,2.33,20,1.67,10.67-.33,12.67.33,11.67,5.33-1.33,8-26.33,9.67-34,2.33-7.67-8-6.67-12.67,2.33-9.33Zm-46.67-38.67c13.67-.33,17.67,1.33,26,9.33h0c13.33,13.67,12,18.34-2.67,9.67-16.67-10-41-10-61.67.33-8.67,4-17.33,6.67-19.33,5.33-14-8.67,22-24,57.67-24.67Zm-84.67-12.33c8.67-15,12-17.67,30.33-24.33,24.67-9,41.67-23.33,46.67-39,3-8.33,5-11,7.67-8.33,2.33,2.33,2.33,5.67,0,11h0c-7.33,16-23,30.66-42.67,39.66-21.33,9.67-31,18.33-39.67,35.33-5.67,11-12,14.67-12,6.67,0-2,4.33-11.67,9.67-21Zm57.68,330.33c16.33-3.67,83.33-23,131.67-38.67,23.33-7.33,47-13.67,52.67-14,8.67-.67,10-2,12-13.67,2-12,9.67-22,17-22,1.67,0,8,2,14.33,4.67h0c12.67,5.34,21.67,20,21.67,35,0,17.33-15.67,26.33-38.33,22.33-10-2-18.67,1.33-67.33,26.67-30.67,16-68.33,36.33-83,45-15,8.67-32,18-37.33,21l-10,5.33-10-27.67c-16-44.33-15.67-41.33-3.33-44Zm-78.35,23.34c21.67-6.67,41-12.67,42.67-13.33,7.67-2.67,10.33,1.67,20.67,30.33h0c5.67,16.33,10.67,32,10.67,34.66,0,3-12,11.33-29.67,20.67l-29.67,15.67-3.67-13.33c-2.67-9.33-11-21-27-38l-23.33-24.67,39.33-12Zm-76.67,3.99h0c11,11.34,13.67,16,10.33,18-2.33,1.67-2.67,3-1,3,2,0,1,1.67-1.67,3.33-10.67,7-18.33,3.33-29.67-14-10.67-16.33-10.67-17.33-5-21.67,9-6.67,11-5.67,27,11.33Zm-33.66-250c2.67-7,18-3,18,4.67,0,4.67-2.33,6.33-10,6.33-10,0-11.67-2-8-11Zm-100.33,54.34c6.33-2,15.33-8.33,20-14,7.67-9,9.67-10,17-6.33,11.33,5,31.67,4.33,39.33-1.33,4-3,14-5,25.33-5,15,0,19.33,1.33,22.67,7h0c2.33,3.66,12.33,10.32,21.67,14.66l17.33,7.67-11.67,1.67c-6.33,1-45.67,3-87.33,4-75.33,2-89.67,0-64.33-8.33Zm10.33,126.66c-9.67-17.67-18.33-57-18.67-84.33v-15.67l14.33-.33c38-1.33,141.67-5.33,148.33-5.67,7.67-.67,7.67,0,5.67,18.33h0c-8.33,72-26,112.33-55.67,128-31,16-73.33-2-94-40.33Zm-90.33,307.33h0c-21.67,22.34-48.33,51.34-59.33,64.34-11,12.67-23,24.33-26.67,26-5.33,2-6.33,4.67-4.67,14.33,4,25-13.33,48-36,48-13.33,0-28-9-30.33-18.67-5.33-20.67,12.67-48,31.67-48,7.33,0,10.67-3.67,20.67-23,6.67-12.33,34.33-56,61.67-97l49.33-74.33,16.67,33.67,16.67,33.33-39.67,41.33Zm75.33-76.67l-22.67,24-37.34-72,10.33-15.67c19.67-28.67,40.33-54.67,59-73l18.33-18.67,8,16.67c6.67,14,7.33,20.33,6.67,46.67h0c-1.67,38.33-10.67,58.33-42.33,92Zm57.66,161.67c-3.67-3.33-20.67-82.33-18.33-84,5.33-3,146-37,158.33-38,1.33-.33,2,1.67,1,4h0c-.67,2-3.33,20-6,40l-4.33,35.67-25,9.67c-44,16.67-103.33,35-105.67,32.67Zm447.99,254.66c-25,8-31.33,9-35,5.67-2.33-2.67-6.33-24.33-9.33-52.67-9.67-89-29-231.67-31.67-234.67-1.67-1.67-5.33-2-8.33-.67-4.67,1.67-5.33,5-3.33,18l2,16-32,29.33c-17.67,16.33-32.33,29-33,28.33-1.67-1.33-23.33-100.33-27-120.33-2.33-14.33-7.67-10.67,60-38.33,47.67-19.33,68.67-24.33,94.33-23,16,1,23,3,28.67,8.33h0c16,15,19,48.67,10.33,118.67-12.67,105.33-21.33,186-20,188.33,1,1.33,25.67,2.67,55,2.67,29.33.33,55,1.33,57,2.33,10.67,6.67-31.67,27-107.67,52Z" stroke-width="0"/></svg>